<?xml version="1.0" encoding="UTF-8" standalone="no"?>
<svg
   xmlns:dc="http://purl.org/dc/elements/1.1/"
   xmlns:cc="http://creativecommons.org/ns#"
   xmlns:rdf="http://www.w3.org/1999/02/22-rdf-syntax-ns#"
   xmlns:svg="http://www.w3.org/2000/svg"
   xmlns="http://www.w3.org/2000/svg"
   xmlns:sodipodi="http://sodipodi.sourceforge.net/DTD/sodipodi-0.dtd"
   xmlns:inkscape="http://www.inkscape.org/namespaces/inkscape"
   id="honda"
   viewBox="0 0 4096 4096"
   version="1.1"
   sodipodi:docname="honda-motos-logo.svg"
   inkscape:version="0.92.2 (5c3e80d, 2017-08-06)"
   width="4096"
   height="4096"
   inkscape:export-filename="G:\Users\suitedoalex\sites\svg\honda-motos-logo-0.png"
   inkscape:export-xdpi="96"
   inkscape:export-ydpi="96">
  <metadata
     id="metadata13">
    <rdf:RDF>
      <cc:Work
         rdf:about="">
        <dc:format>image/svg+xml</dc:format>
        <dc:type
           rdf:resource="http://purl.org/dc/dcmitype/StillImage" />
        <dc:title></dc:title>
      </cc:Work>
    </rdf:RDF>
  </metadata>
  <defs
     id="defs11" />
  <sodipodi:namedview
     pagecolor="#ffffff"
     bordercolor="#666666"
     borderopacity="1"
     objecttolerance="10"
     gridtolerance="10"
     guidetolerance="10"
     inkscape:pageopacity="0"
     inkscape:pageshadow="2"
     inkscape:window-width="1600"
     inkscape:window-height="837"
     id="namedview9"
     showgrid="false"
     inkscape:zoom="0.04"
     inkscape:cx="7594.7451"
     inkscape:cy="1717.3965"
     inkscape:window-x="-8"
     inkscape:window-y="-8"
     inkscape:window-maximized="1"
     inkscape:current-layer="honda" />
  <path
     d="m 1405.6381,2139.319 1493.2355,-405.7207 c 200.1149,-40.5721 233.3657,-144.5953 273.6327,-218.1131 l 86.3301,-152.2215 -2451.71272,811.4415 c -96.3968,32.9458 -55.8248,101.2777 -30.5053,124.1567 l 38.1316,32.9457 550.01102,-141.8497 c -12.8123,-2.4405 -15.2527,-32.9458 2.4404,-40.5721 20.4385,-5.1859 38.4367,-10.0668 38.4367,-10.0668 z m -560.38282,222.9939 2172.58902,-555.1968 -126.597,185.1673 c -30.5054,40.5721 -71.0774,91.2109 -228.1798,121.7162 0,0 -1011.5565,190.0482 -1029.2496,197.6745 -20.1335,7.6263 -15.2527,38.1317 -2.4404,40.5721 l -654.03412,131.783 z m 309.32402,286.445 -152.2216,-141.8497 1739.1084,-319.3908 c 0,0 -78.7037,88.7705 -139.4093,149.4761 -55.8247,55.8248 -98.8372,78.7038 -190.0481,96.3968 0,0 -446.2929,65.8915 -466.4264,73.5179 -20.1335,7.6263 -22.879,32.9457 -2.4404,40.572 z m 1247.0575,182.4218 -397.7894,-245.8729 -818.7628,93.9564 167.1692,151.9165"
     id="path2"
     inkscape:connector-curvature="0"
     style="stroke-width:3.0505321;fill:#cc0000;fill-opacity:1"
     inkscape:export-xdpi="35.271099"
     inkscape:export-ydpi="35.271099" />
  <path
     d="m 1027.6772,2831.1797 c 0,0 -7.6264,-58.2651 -104.02322,-149.476 -35.3862,-32.9458 -286.1399,-284.0046 -286.1399,-284.0046 -93.6514,-78.7037 -167.1692,-301.6976 91.2109,-405.7208 714.73972,-291.3258 1898.65122,-765.3785 2055.75362,-831.27 428.5998,-182.42176 686.9799,-314.20476 686.9799,-314.20476 -91.2109,258.68506 -141.8498,380.09626 -321.8312,446.29286 -922.786,329.1524 -2372.70392,836.1508 -2372.70392,836.1508 -78.7037,32.9458 -126.5971,114.0899 -30.5053,210.4867 l 534.75832,494.1863 z m -45.45302,147.0357 c 0,-17.6931 -12.8122,-27.7599 -30.5053,-27.7599 l -38.1317,-5.1859 v -43.0125 h 271.19242 v 43.0125 l -38.1317,5.1859 c -17.6931,0 -30.5053,10.0668 -30.5053,30.5054 v 177.5409 c 0,17.6931 7.6263,30.5054 30.5053,30.5054 l 38.1317,5.1859 v 45.7579 H 913.58718 v -45.7579 l 40.5721,-5.1859 c 17.6931,0 30.5053,-12.8123 30.5053,-27.7599 v -55.8247 h -210.4867 v 55.8247 c 0,17.6931 7.6264,25.3194 27.7599,27.7599 l 40.572,5.1859 v 45.7579 h -273.6327 v -45.7579 l 40.5721,-5.1859 c 17.6931,0 27.7598,-12.8123 27.7598,-27.7599 v -179.9814 c 0,-17.6931 -10.0667,-30.5053 -27.7598,-30.5053 l -40.5721,-5.491 v -43.0125 h 271.1923 v 43.0125 l -40.5721,5.1859 c -17.693,0 -27.7598,12.8123 -27.7598,27.7599 v 58.2651 h 210.4867 z m 1054.56902,-55.8248 172.3551,230.6203 V 2975.775 c 0,-17.6931 -12.8123,-25.3195 -30.5054,-25.3195 l -38.1316,-5.1859 v -43.0125 h 212.9271 v 43.0125 l -32.9457,5.1859 c -17.6931,0 -30.5053,10.0668 -30.5053,27.7599 v 261.1255 h -169.9147 c -15.2526,0 -25.3194,-7.6263 -32.9457,-20.1335 l -174.4905,-230.6202 v 174.7955 c 0,17.6931 12.8123,27.7598 30.5054,27.7598 l 35.3861,2.4405 v 45.7579 h -215.3675 v -45.7579 l 40.572,-5.1859 c 20.1335,-2.4405 27.7599,-12.8123 27.7599,-30.5054 v -179.9814 c 0,-17.6931 -10.0668,-25.3194 -27.7599,-27.7598 l -38.1316,-5.1859 v -43.0125 h 238.2465 c 20.1336,0 25.3195,7.6263 32.9458,17.6931 z m -281.5641,149.7812 c 0,-119.2758 -106.4636,-187.6078 -278.8187,-185.1673 -172.355,-2.4405 -276.3782,60.7056 -276.3782,179.9814 0,119.2758 106.4636,185.1673 278.8187,182.4218 169.9146,2.7455 273.9377,-58.2652 276.3782,-177.2359 z m -161.9833,12.5072 c 0,65.8915 -40.5721,91.2109 -96.3968,91.2109 h -43.0125 c -55.8247,0 -88.7705,-30.5054 -88.7705,-91.2109 v -30.5054 c 0,-58.2651 32.9458,-106.4635 93.6513,-106.4635 h 35.3862 c 60.7056,0 98.8373,43.0125 98.8373,106.4635 z m 788.2575,154.6619 v -45.7579 l 40.5721,-2.4405 c 17.6931,-2.4404 27.7599,-10.0667 27.7599,-27.7598 v -185.1673 c 0,-17.6931 -10.0668,-25.3194 -25.3195,-25.3194 -12.8122,-2.4405 -38.1316,-5.1859 -38.1316,-5.1859 v -43.0125 h 354.7769 c 111.6495,0 202.8604,58.2651 202.8604,169.9146 0,114.0899 -96.3969,169.9146 -202.8604,169.9146 z m 202.8604,-65.8915 H 2706.08 c 35.3861,0 78.7037,-10.0667 78.7037,-104.0231 0,-93.9564 -43.0125,-106.4636 -78.7037,-106.4636 h -121.7163 z"
     id="path4"
     inkscape:connector-curvature="0"
     style="stroke-width:3.0505321;fill:#cc0000;fill-opacity:1"
     inkscape:export-xdpi="35.271099"
     inkscape:export-ydpi="35.271099" />
  <path
     d="m 3268.5981,3074.6122 -68.3319,-106.4636 -63.4511,106.4636 z m 50.9439,78.7037 -12.8123,-20.1335 h -207.7412 l -17.6931,27.7599 c -2.4404,2.4404 -2.4404,7.6263 -2.4404,10.0667 0,10.0668 10.0667,17.6931 22.879,17.6931 l 30.5053,2.4404 v 45.758 h -220.5535 v -45.758 c 0,0 22.879,-2.4404 40.5721,-2.4404 20.1335,-2.4404 27.7598,-7.6263 35.3862,-20.1335 l 114.0899,-182.4218 c 2.4404,-5.1859 5.1859,-10.0668 5.1859,-17.6931 0,-12.8123 -10.0668,-15.2527 -22.879,-17.6931 -17.6931,-2.4404 -53.3843,-7.6263 -53.3843,-7.6263 v -45.758 h 255.9396 c 17.6931,0 25.3194,5.1859 35.3862,17.6931 l 10.0668,15.2526 149.476,230.6203 c 7.6264,12.8122 22.879,22.879 40.5721,22.879 l 22.879,2.4404 v 45.758 h -284.0045 v -45.758 l 45.7579,-2.4404 c 0,0 17.6931,-2.4405 20.1336,-10.0668 2.7454,-10.3718 -7.3213,-20.4386 -7.3213,-20.4386 z"
     id="path6"
     inkscape:connector-curvature="0"
     sodipodi:nodetypes="ccccccccsccccccccscccsccccccccccc"
     style="stroke-width:3.0505321;fill:#cc0000;fill-opacity:1"
     inkscape:export-xdpi="35.271099"
     inkscape:export-ydpi="35.271099" />
  <g
     transform="matrix(13.898112,0,0,13.898112,5705.1527,1165.0782)"
     style="fill:#cc0000"
     id="g8"
     inkscape:export-xdpi="10.855593"
     inkscape:export-ydpi="10.855593">
    <path
       inkscape:connector-curvature="0"
       d="m 260.5,93.3 v -32 c 0,-3.5 2.4,-5.5 5.5,-5.5 l 6.8,-0.8 v -8 h -49 v 8 l 7,0.8 c 3,0 5.5,2.2 5.5,5.2 V 71.5 H 198 V 61.2 c 0,-3 2,-5.2 5,-5.2 l 7.4,-1 v -8 h -49 v 8 l 7.4,1 c 3,0 5,2.3 5,5.4 V 94 c 0,3 -2,5 -5,5 l -7.3,0.8 v 8 h 49 v -8 L 203,99 c -3.2,-0.4 -4.8,-2 -4.8,-5 V 83.5 h 38 v 10 c 0,3 -2.2,5.3 -5.3,5.3 l -7.2,0.7 v 8.2 h 49 V 99.4 L 266,99 c -4,-0.2 -5.5,-2.7 -5.5,-5.7 z M 447,55 l 6.8,0.7 c 3,0 5.3,1.8 5.3,4.8 V 92.3 L 428,51 427.5,50 c -1.6,-2 -2.6,-3.2 -6,-3.2 h -43 v 8 l 7,1 c 3.4,0.2 5.3,2 5.3,5 v 32.6 c 0,3 -1.5,5 -5,5.4 l -7.3,0.7 v 8.2 H 417 v -8.3 l -6.3,-0.6 c -3,0 -5.5,-1.8 -5.5,-4.8 V 62.4 l 31.6,41.8 c 1.7,2.2 3.2,3.6 6,3.6 h 31 V 60.6 c 0,-3 2.2,-5 5.2,-5 l 6,-0.7 v -8 h -38 v 8 z M 325.2,44.7 c -31,-0.5 -49.7,11.2 -50,32.5 0,21.7 19,33.2 50.3,32.7 30.8,0.5 49.4,-10.8 50,-31.8 V 78 c 0,-21.8 -19,-33.8 -50.3,-33.3 z M 347.5,80 c 0,12 -8.5,18.2 -18.4,18.2 h -7.8 c -10,0 -17.6,-7.3 -17.6,-18.2 v -5.3 c 0,-10.5 7.5,-18.5 18.4,-18.5 h 6.2 c 11,0 19.3,7 19.3,18.5 V 80 Z M 554.8,47 h -64 v 8 l 6.8,0.8 c 2.8,0.3 4.7,1.7 4.7,4.7 V 94 c 0,3 -1.8,4.6 -5,5 l -7.3,0.4 v 8.4 h 64.7 c 19.2,0 36.7,-9.7 36.7,-30.4 0,-20 -16.5,-30.4 -36.6,-30.4 z m -6.5,49 h -22 V 58.5 h 22 c 6.2,0 14,2 14,19 0,17 -7.8,18.7 -14,18.7 z"
       id="path2-8" />
    <path
       inkscape:connector-curvature="0"
       d="m 696,99 c -3.2,0 -5.6,-1.8 -7.2,-4.2 L 661.6,53 l -2,-2.7 C 658,47.9 656.3,47 653.2,47 H 607 v 8 l 9.5,1.2 c 2.4,0.4 4.2,0.8 4.2,3.2 0,1 -0.6,2.2 -1,3 l -20.5,33 c -1.6,2.4 -3,3.3 -6.5,3.6 l -7,0.5 v 8.4 h 39 v -8.5 l -5.2,-0.5 c -2,0 -4,-1 -4,-3 0,-0.7 0.2,-1.3 0.5,-2 l 3.2,-5 H 657 l 2,3.6 c 0,0 1.7,1.8 1.2,4.4 -0.3,1.6 -3.4,2 -3.4,2 l -8,0.5 v 8.4 H 700 v -8.5 l -4,-0.5 z m -70,-20.6 11.5,-19 12.2,19 z M 12.4,79 l 2,1.7 29.8,-7.7 c -0.6,-0.2 -0.8,-1.8 0.2,-2.2 l 2,-0.6 81,-22 C 138,46 139.8,40.4 142,36.4 L 146.6,28.1 14,72 c -5.2,2 -3,5.7 -1.6,7 z m 10.6,9.7 35.5,-7 c -0.6,-0.2 -0.8,-1.8 0.2,-2.2 1,-0.3 55.8,-10.7 55.8,-10.7 8.5,-1.6 10.7,-4.4 12.3,-6.6 l 7,-10 -117.8,30 z m 10,9.1 42.7,-5.6 c -1,-0.4 -0.8,-1.8 0.2,-2.2 1,-0.4 25,-4 25,-4 5,-1 7.4,-2.3 10.4,-5.3 3.2,-3.2 7.5,-8 7.5,-8 L 24.5,90 33,98 Z m 1.5,1.6 9,8.3 h 57 L 78.7,94.4"
       id="path4-6" />
    <path
       inkscape:connector-curvature="0"
       d="m 9.7,62 c -14,5.7 -10,17.8 -5,22 l 15.5,15.6 c 5.2,5 5.7,8 5.7,8 H 39.5 L 10.6,81 c -5,-5.5 -2.6,-9.8 1.7,-11.6 0,0 78.4,-27.4 128.5,-45.3 10,-3.4 12.5,-10 17.5,-24 0,0 -14,7.2 -37.2,17 -8.4,3.7 -72.5,29.4 -111.3,45 z"
       id="path6-0" />
  </g>
</svg>
